<?xml version="1.0" encoding="UTF-8"?>
<!-- mtproxy-ws repository logo: the proxy network. -->
<svg width="256" height="256" version="1.1" xmlns="http://www.w3.org/2000/svg">
  <defs>
    <linearGradient id="bg" x1="0" x2="0" y1="0" y2="1">
      <stop offset="0%" style="stop-color:#001283;stop-opacity:1"/>
      <stop offset="100%" style="stop-color:#1C71D8;stop-opacity:1"/>
    </linearGradient>
  </defs>
  <rect width="256" height="256" rx="56" ry="56" fill="url(#bg)"/>
  <g fill="#ffffff" transform="matrix(10,0,0,10,48,48)">
    <path d="m 2 0 c -1.097656 0 -2 0.902344 -2 2.003906 c 0 1.097656 0.902344 2 2 2 c 0.734375 0 1.382812 -0.40625 1.730469 -1 h 3.269531 c 0.5625 0 1 0.433594 1 1 v 2.269532 c -0.300781 0.175781 -0.554688 0.425781 -0.730469 0.730468 h -3.539062 c -0.347657 -0.597656 -0.996094 -1 -1.730469 -1 c -1.097656 0 -2 0.898438 -2 2 c 0 1.097656 0.902344 2 2 2 c 0.734375 0 1.382812 -0.40625 1.730469 -1 h 3.539062 c 0.175781 0.300782 0.429688 0.550782 0.730469 0.726563 v 2.273437 c 0 0.5625 -0.4375 1 -1 1 h -3.269531 c -0.347657 -0.597656 -0.996094 -1 -1.730469 -1 c -1.097656 0 -2 0.898438 -2 2 c 0 1.097656 0.902344 2 2 2 c 0.734375 0 1.382812 -0.40625 1.730469 -1 h 3.269531 c 1.644531 0 3 -1.355468 3 -3 v -2.273437 c 0.300781 -0.175781 0.554688 -0.425781 0.730469 -0.726563 h 1.539062 c 0.347657 0.59375 0.996094 1 1.730469 1 c 1.097656 0 2 -0.902344 2 -2 c 0 -1.101562 -0.902344 -2 -2 -2 c -0.734375 0 -1.382812 0.402344 -1.730469 1 h -1.539062 c -0.175781 -0.304687 -0.429688 -0.554687 -0.730469 -0.730468 v -2.269532 c 0 -1.648437 -1.355469 -3 -3 -3 h -3.269531 c -0.347657 -0.597656 -0.996094 -1.003906 -1.730469 -1.003906 z m 0 1.003906 c 0.558594 0 1 0.441406 1 1 c 0 0.554688 -0.441406 1 -1 1 s -1 -0.445312 -1 -1 c 0 -0.558594 0.441406 -1 1 -1 z m 0 6 c 0.558594 0 1 0.441406 1 1 c 0 0.554688 -0.441406 1 -1 1 s -1 -0.445312 -1 -1 c 0 -0.558594 0.441406 -1 1 -1 z m 12 0 c 0.558594 0 1 0.441406 1 1 c 0 0.554688 -0.441406 1 -1 1 s -1 -0.445312 -1 -1 c 0 -0.558594 0.441406 -1 1 -1 z m -12 6 c 0.558594 0 1 0.441406 1 1 c 0 0.554688 -0.441406 1 -1 1 s -1 -0.445312 -1 -1 c 0 -0.558594 0.441406 -1 1 -1 z m 0 0"/>
  </g>
</svg>
